<svg width="185" height="81" viewBox="0 0 185 81" fill="none" xmlns="http://www.w3.org/2000/svg">
<path d="M27.5737 7.52002C30.2937 7.52002 32.4804 8.36002 34.1338 10.04C35.8137 11.6934 36.6537 14.0134 36.6537 17V30H31.0537V17.76C31.0537 16.0267 30.6137 14.7067 29.7337 13.8C28.8537 12.8667 27.6537 12.4 26.1337 12.4C24.6137 12.4 23.4004 12.8667 22.4937 13.8C21.6137 14.7067 21.1737 16.0267 21.1737 17.76V30H15.5737V17.76C15.5737 16.0267 15.1337 14.7067 14.2537 13.8C13.3737 12.8667 12.1737 12.4 10.6537 12.4C9.10708 12.4 7.88041 12.8667 6.97375 13.8C6.09375 14.7067 5.65375 16.0267 5.65375 17.76V30H0.0537472V7.84002H5.65375V10.52C6.37375 9.58669 7.29375 8.85336 8.41375 8.32002C9.56041 7.78669 10.8137 7.52002 12.1737 7.52002C13.9071 7.52002 15.4537 7.89336 16.8137 8.64002C18.1737 9.36002 19.2271 10.4 19.9737 11.76C20.6937 10.48 21.7337 9.45336 23.0937 8.68002C24.4804 7.90669 25.9737 7.52002 27.5737 7.52002Z" fill="#141414"/>
<path d="M41.3278 18.84C41.3278 16.6 41.7678 14.6134 42.6478 12.88C43.5545 11.1467 44.7678 9.81336 46.2878 8.88002C47.8345 7.94669 49.5545 7.48002 51.4478 7.48002C53.1011 7.48002 54.5411 7.81336 55.7678 8.48002C57.0211 9.14669 58.0211 9.98669 58.7678 11V7.84002H64.4078V30H58.7678V26.76C58.0478 27.8 57.0478 28.6667 55.7678 29.36C54.5145 30.0267 53.0611 30.36 51.4078 30.36C49.5411 30.36 47.8345 29.88 46.2878 28.92C44.7678 27.96 43.5545 26.6134 42.6478 24.88C41.7678 23.12 41.3278 21.1067 41.3278 18.84ZM58.7678 18.92C58.7678 17.56 58.5011 16.4 57.9678 15.44C57.4345 14.4534 56.7145 13.7067 55.8078 13.2C54.9011 12.6667 53.9278 12.4 52.8878 12.4C51.8478 12.4 50.8878 12.6534 50.0078 13.16C49.1278 13.6667 48.4078 14.4134 47.8478 15.4C47.3145 16.36 47.0478 17.5067 47.0478 18.84C47.0478 20.1734 47.3145 21.3467 47.8478 22.36C48.4078 23.3467 49.1278 24.1067 50.0078 24.64C50.9145 25.1734 51.8745 25.44 52.8878 25.44C53.9278 25.44 54.9011 25.1867 55.8078 24.68C56.7145 24.1467 57.4345 23.4 57.9678 22.44C58.5011 21.4534 58.7678 20.28 58.7678 18.92Z" fill="#141414"/>
<path d="M77.1972 12.44V23.16C77.1972 23.9067 77.3705 24.4534 77.7172 24.8C78.0905 25.12 78.7038 25.28 79.5572 25.28H82.1572V30H78.6372C73.9172 30 71.5572 27.7067 71.5572 23.12V12.44H68.9172V7.84002H71.5572V2.36002H77.1972V7.84002H82.1572V12.44H77.1972Z" fill="#141414"/>
<path d="M99.465 7.52002C101.145 7.52002 102.638 7.89336 103.945 8.64002C105.252 9.36002 106.265 10.44 106.985 11.88C107.732 13.2934 108.105 15 108.105 17V30H102.505V17.76C102.505 16 102.065 14.6534 101.185 13.72C100.305 12.76 99.105 12.28 97.585 12.28C96.0383 12.28 94.8117 12.76 93.905 13.72C93.025 14.6534 92.585 16 92.585 17.76V30H86.985V0.400024H92.585V10.6C93.305 9.64002 94.265 8.89336 95.465 8.36002C96.665 7.80002 97.9983 7.52002 99.465 7.52002Z" fill="#141414"/>
<path d="M134.83 18.44C134.83 19.24 134.777 19.96 134.67 20.6H118.47C118.604 22.2 119.164 23.4534 120.15 24.36C121.137 25.2667 122.35 25.72 123.79 25.72C125.87 25.72 127.35 24.8267 128.23 23.04H134.27C133.63 25.1734 132.404 26.9334 130.59 28.32C128.777 29.68 126.55 30.36 123.91 30.36C121.777 30.36 119.857 29.8934 118.15 28.96C116.47 28 115.15 26.6534 114.19 24.92C113.257 23.1867 112.79 21.1867 112.79 18.92C112.79 16.6267 113.257 14.6134 114.19 12.88C115.124 11.1467 116.43 9.81336 118.11 8.88002C119.79 7.94669 121.724 7.48002 123.91 7.48002C126.017 7.48002 127.897 7.93336 129.55 8.84002C131.23 9.74669 132.524 11.04 133.43 12.72C134.364 14.3734 134.83 16.28 134.83 18.44ZM129.03 16.84C129.004 15.4 128.484 14.2534 127.47 13.4C126.457 12.52 125.217 12.08 123.75 12.08C122.364 12.08 121.19 12.5067 120.23 13.36C119.297 14.1867 118.724 15.3467 118.51 16.84H129.03Z" fill="#141414"/>
<path d="M160.638 7.84002V30H154.998V27.2C154.278 28.16 153.331 28.92 152.158 29.48C151.011 30.0134 149.758 30.28 148.398 30.28C146.664 30.28 145.131 29.92 143.798 29.2C142.464 28.4534 141.411 27.3734 140.638 25.96C139.891 24.52 139.518 22.8134 139.518 20.84V7.84002H145.118V20.04C145.118 21.8 145.558 23.16 146.438 24.12C147.318 25.0534 148.518 25.52 150.038 25.52C151.584 25.52 152.798 25.0534 153.678 24.12C154.558 23.16 154.998 21.8 154.998 20.04V7.84002H160.638Z" fill="#141414"/>
<path d="M175.443 30.36C173.63 30.36 172.003 30.04 170.563 29.4C169.123 28.7334 167.976 27.84 167.123 26.72C166.296 25.6 165.843 24.36 165.763 23H171.403C171.51 23.8534 171.923 24.56 172.643 25.12C173.39 25.68 174.31 25.96 175.403 25.96C176.47 25.96 177.296 25.7467 177.883 25.32C178.496 24.8934 178.803 24.3467 178.803 23.68C178.803 22.96 178.43 22.4267 177.683 22.08C176.963 21.7067 175.803 21.3067 174.203 20.88C172.55 20.48 171.19 20.0667 170.123 19.64C169.083 19.2134 168.176 18.56 167.403 17.68C166.656 16.8 166.283 15.6134 166.283 14.12C166.283 12.8934 166.63 11.7734 167.323 10.76C168.043 9.74669 169.056 8.94669 170.363 8.36002C171.696 7.77336 173.256 7.48002 175.043 7.48002C177.683 7.48002 179.79 8.14669 181.363 9.48002C182.936 10.7867 183.803 12.56 183.963 14.8H178.603C178.523 13.92 178.15 13.2267 177.483 12.72C176.843 12.1867 175.976 11.92 174.883 11.92C173.87 11.92 173.083 12.1067 172.523 12.48C171.99 12.8534 171.723 13.3734 171.723 14.04C171.723 14.7867 172.096 15.36 172.843 15.76C173.59 16.1334 174.75 16.52 176.323 16.92C177.923 17.32 179.243 17.7334 180.283 18.16C181.323 18.5867 182.216 19.2534 182.963 20.16C183.736 21.04 184.136 22.2134 184.163 23.68C184.163 24.96 183.803 26.1067 183.083 27.12C182.39 28.1334 181.376 28.9334 180.043 29.52C178.736 30.08 177.203 30.36 175.443 30.36Z" fill="#141414"/>
<path d="M80.9256 40.4V70H75.3256V40.4H80.9256Z" fill="#141414"/>
<path d="M97.0984 70.36C94.9651 70.36 93.0451 69.8934 91.3384 68.96C89.6318 68 88.2851 66.6534 87.2984 64.92C86.3384 63.1867 85.8584 61.1867 85.8584 58.92C85.8584 56.6534 86.3518 54.6534 87.3384 52.92C88.3518 51.1867 89.7251 49.8534 91.4584 48.92C93.1918 47.96 95.1251 47.48 97.2584 47.48C99.3918 47.48 101.325 47.96 103.058 48.92C104.792 49.8534 106.152 51.1867 107.138 52.92C108.152 54.6534 108.658 56.6534 108.658 58.92C108.658 61.1867 108.138 63.1867 107.098 64.92C106.085 66.6534 104.698 68 102.938 68.96C101.205 69.8934 99.2584 70.36 97.0984 70.36ZM97.0984 65.48C98.1118 65.48 99.0584 65.24 99.9384 64.76C100.845 64.2534 101.565 63.5067 102.098 62.52C102.632 61.5334 102.898 60.3334 102.898 58.92C102.898 56.8134 102.338 55.2 101.218 54.08C100.125 52.9334 98.7784 52.36 97.1784 52.36C95.5784 52.36 94.2318 52.9334 93.1384 54.08C92.0718 55.2 91.5384 56.8134 91.5384 58.92C91.5384 61.0267 92.0584 62.6534 93.0984 63.8C94.1651 64.92 95.4984 65.48 97.0984 65.48Z" fill="#141414"/>
<path d="M119.166 51.04C119.886 50.0267 120.873 49.1867 122.126 48.52C123.406 47.8267 124.86 47.48 126.486 47.48C128.38 47.48 130.086 47.9467 131.606 48.88C133.153 49.8134 134.366 51.1467 135.246 52.88C136.153 54.5867 136.606 56.5734 136.606 58.84C136.606 61.1067 136.153 63.12 135.246 64.88C134.366 66.6134 133.153 67.96 131.606 68.92C130.086 69.88 128.38 70.36 126.486 70.36C124.86 70.36 123.42 70.0267 122.166 69.36C120.94 68.6934 119.94 67.8534 119.166 66.84V80.56H113.566V47.84H119.166V51.04ZM130.886 58.84C130.886 57.5067 130.606 56.36 130.046 55.4C129.513 54.4134 128.793 53.6667 127.886 53.16C127.006 52.6534 126.046 52.4 125.006 52.4C123.993 52.4 123.033 52.6667 122.126 53.2C121.246 53.7067 120.526 54.4534 119.966 55.44C119.433 56.4267 119.166 57.5867 119.166 58.92C119.166 60.2534 119.433 61.4134 119.966 62.4C120.526 63.3867 121.246 64.1467 122.126 64.68C123.033 65.1867 123.993 65.44 125.006 65.44C126.046 65.44 127.006 65.1734 127.886 64.64C128.793 64.1067 129.513 63.3467 130.046 62.36C130.606 61.3734 130.886 60.2 130.886 58.84Z" fill="#141414"/>
<path d="M162.076 58.44C162.076 59.24 162.022 59.96 161.916 60.6H145.716C145.849 62.2 146.409 63.4534 147.396 64.36C148.382 65.2667 149.596 65.72 151.036 65.72C153.116 65.72 154.596 64.8267 155.476 63.04H161.516C160.876 65.1734 159.649 66.9334 157.836 68.32C156.022 69.68 153.796 70.36 151.156 70.36C149.022 70.36 147.102 69.8934 145.396 68.96C143.716 68 142.396 66.6534 141.436 64.92C140.502 63.1867 140.036 61.1867 140.036 58.92C140.036 56.6267 140.502 54.6134 141.436 52.88C142.369 51.1467 143.676 49.8134 145.356 48.88C147.036 47.9467 148.969 47.48 151.156 47.48C153.262 47.48 155.142 47.9334 156.796 48.84C158.476 49.7467 159.769 51.04 160.676 52.72C161.609 54.3734 162.076 56.28 162.076 58.44ZM156.276 56.84C156.249 55.4 155.729 54.2534 154.716 53.4C153.702 52.52 152.462 52.08 150.996 52.08C149.609 52.08 148.436 52.5067 147.476 53.36C146.542 54.1867 145.969 55.3467 145.756 56.84H156.276Z" fill="#141414"/>
<path d="M175.443 70.36C173.63 70.36 172.003 70.04 170.563 69.4C169.123 68.7334 167.976 67.84 167.123 66.72C166.296 65.6 165.843 64.36 165.763 63H171.403C171.51 63.8534 171.923 64.56 172.643 65.12C173.39 65.68 174.31 65.96 175.403 65.96C176.47 65.96 177.296 65.7467 177.883 65.32C178.496 64.8934 178.803 64.3467 178.803 63.68C178.803 62.96 178.43 62.4267 177.683 62.08C176.963 61.7067 175.803 61.3067 174.203 60.88C172.55 60.48 171.19 60.0667 170.123 59.64C169.083 59.2134 168.176 58.56 167.403 57.68C166.656 56.8 166.283 55.6134 166.283 54.12C166.283 52.8934 166.63 51.7734 167.323 50.76C168.043 49.7467 169.056 48.9467 170.363 48.36C171.696 47.7734 173.256 47.48 175.043 47.48C177.683 47.48 179.79 48.1467 181.363 49.48C182.936 50.7867 183.803 52.56 183.963 54.8H178.603C178.523 53.92 178.15 53.2267 177.483 52.72C176.843 52.1867 175.976 51.92 174.883 51.92C173.87 51.92 173.083 52.1067 172.523 52.48C171.99 52.8534 171.723 53.3734 171.723 54.04C171.723 54.7867 172.096 55.36 172.843 55.76C173.59 56.1334 174.75 56.52 176.323 56.92C177.923 57.32 179.243 57.7334 180.283 58.16C181.323 58.5867 182.216 59.2534 182.963 60.16C183.736 61.04 184.136 62.2134 184.163 63.68C184.163 64.96 183.803 66.1067 183.083 67.12C182.39 68.1334 181.376 68.9334 180.043 69.52C178.736 70.08 177.203 70.36 175.443 70.36Z" fill="#141414"/>
<path d="M0 53H64V59H0V53Z" fill="#F08E5D"/>
</svg>
